<svg version="1.1" id="Layer_1" xmlns="http://www.w3.org/2000/svg" xmlns:xlink="http://www.w3.org/1999/xlink" x="0px" y="0px"
	 width="100%" viewBox="0 0 214 236" enable-background="new 0 0 214 236" xml:space="preserve">
<path fill="#F6F5F5" opacity="1.000000" stroke="none" 
	d="
M113.000000,237.000000 
	C75.333336,237.000000 38.166672,237.000000 1.000005,237.000000 
	C1.000003,158.333344 1.000003,79.666679 1.000002,1.000015 
	C72.333321,1.000010 143.666641,1.000010 214.999969,1.000005 
	C214.999985,79.666649 214.999985,158.333298 215.000000,236.999969 
	C181.166672,237.000000 147.333328,237.000000 113.000000,237.000000 
M110.975037,190.332138 
	C110.690201,189.556015 110.405373,188.779892 110.733543,187.888290 
	C110.749092,187.122818 111.092781,186.087326 110.723480,185.638565 
	C109.112244,183.680618 107.251839,181.930511 105.563240,180.032593 
	C104.061584,178.344818 102.666977,176.561768 101.081802,174.254105 
	C100.972198,173.879227 100.862602,173.504333 100.924797,172.454910 
	C100.632729,171.629669 100.340668,170.804443 99.805008,169.304169 
	C97.652122,165.801178 95.499245,162.298187 93.430756,158.429321 
	C93.430756,158.429321 93.266937,158.091446 93.653763,157.683029 
	C93.666260,157.495926 93.678749,157.308838 94.023743,156.725372 
	C94.723831,155.978271 95.423920,155.231186 96.711426,154.189148 
	C97.845047,153.195862 98.978676,152.202560 100.742470,150.959793 
	C103.834007,147.634293 106.925545,144.308807 110.667046,141.057617 
	C111.100098,141.072617 111.533157,141.087616 112.289993,141.643021 
	C112.709373,142.785767 113.128754,143.928497 113.734261,145.677338 
	C113.758308,146.098831 113.782364,146.520309 113.575226,147.209885 
	C113.762726,147.435394 113.950233,147.660904 114.765358,148.362549 
	C112.954086,158.573624 114.263412,168.219315 119.902725,177.894440 
	C120.637604,182.194672 121.372490,186.494919 122.049698,191.582916 
	C122.538826,195.431229 126.302292,199.173645 122.424255,203.163208 
	C122.987122,203.432220 123.549980,203.701233 124.080421,204.720474 
	C123.776192,207.176697 123.471954,209.632919 122.984138,212.778427 
	C121.179779,215.506882 119.167847,218.128204 117.676338,221.018127 
	C117.104210,222.126678 117.719604,223.848145 117.793869,225.290329 
	C119.358322,224.852173 120.922768,224.414017 123.330254,224.088745 
	C128.615616,224.058624 130.386673,220.187531 132.575775,216.040009 
	C132.700531,215.699295 132.825287,215.358566 133.517883,214.642471 
	C137.369568,212.682907 136.999374,210.152298 134.685013,207.154419 
	C133.539673,205.670822 132.736618,203.922974 131.838455,201.547668 
	C129.630783,197.387039 129.811447,193.305267 131.888397,189.094650 
	C133.498886,185.829712 132.753448,182.953720 131.293900,179.391418 
	C128.897141,173.541656 127.992630,167.017349 126.955818,160.695953 
	C126.275154,156.545975 126.468803,152.252594 126.050850,147.279266 
	C125.988388,146.507309 125.925926,145.735367 125.996330,144.264557 
	C124.995895,143.559052 123.995461,142.853531 123.743820,142.073883 
	C125.186081,140.340759 126.628342,138.607635 128.774734,136.520355 
	C128.478760,134.380173 128.182800,132.239975 127.774796,129.365921 
	C127.693466,128.630814 127.612129,127.895714 127.773598,126.618652 
	C127.575478,126.112190 127.377357,125.605721 127.242386,124.344353 
	C126.950020,121.592537 126.657654,118.840729 126.896896,115.877434 
	C127.336487,115.292206 127.776070,114.706978 128.754013,113.550415 
	C128.423843,110.325562 128.093674,107.100716 128.000351,103.133904 
	C128.645111,99.757423 129.289871,96.380936 130.390671,92.470230 
	C133.671646,88.760551 132.632431,84.728554 130.997452,80.067604 
	C128.542465,78.053612 126.087486,76.039612 123.956795,73.276680 
	C123.964539,72.190155 123.972275,71.103622 124.725281,69.846481 
	C129.387482,67.969940 126.493912,64.572105 125.520775,62.542267 
	C124.563690,60.545933 121.888527,58.364285 119.789497,58.168343 
	C116.870758,57.895882 113.409935,64.253166 113.724686,68.749413 
	C114.050323,70.086594 114.375969,71.423782 114.319595,72.636353 
	C114.319595,72.636353 113.955933,72.807289 113.553383,72.677330 
	C113.553383,72.677330 113.130432,72.684143 112.965958,72.104630 
	C112.340790,71.661194 111.715630,71.217751 110.659882,70.246048 
	C108.714325,68.602478 106.642601,67.083656 104.859215,65.279762 
	C103.125221,63.525829 102.050758,60.808559 100.035248,59.715496 
	C96.822281,57.973034 96.012077,55.257988 95.255615,52.255047 
	C94.548874,49.449402 93.919876,46.623909 93.193481,43.823540 
	C92.324432,40.473236 90.410904,39.592670 86.940605,41.692219 
	C87.618011,43.604488 88.841347,45.515488 88.881386,47.450966 
	C89.018929,54.098980 91.255463,59.867378 95.016510,65.621948 
	C95.392120,66.649933 95.767731,67.677910 96.074089,69.506729 
	C96.297501,71.196503 96.520905,72.886269 96.744308,74.576042 
	C96.484535,74.912201 96.224754,75.248367 95.964973,75.584534 
	C92.561981,71.591965 88.910667,68.507774 83.067909,71.266426 
	C82.457497,71.228844 81.847084,71.191254 80.537094,71.143478 
	C79.114471,74.562393 82.397980,81.109795 86.275391,83.219070 
	C91.562035,86.094955 96.687363,89.266144 101.938637,92.209404 
	C102.894096,92.744926 104.121643,92.795029 105.054916,93.849770 
	C105.172112,97.552216 105.289307,101.254669 104.942947,105.581429 
	C105.658081,109.072823 106.373215,112.564217 106.920227,116.444397 
	C106.920227,116.444397 106.896698,116.868759 106.205315,116.949654 
	C103.616035,121.253250 101.009254,125.546623 98.476372,129.883163 
	C98.305191,130.176224 98.690956,130.794571 98.156136,131.528900 
	C97.068909,132.647293 95.981682,133.765686 94.277191,135.086868 
	C93.055107,136.548935 91.833023,138.011002 90.000862,139.765686 
	C88.300827,142.821854 86.600792,145.878021 84.378601,149.336777 
	C83.009483,152.389252 81.640366,155.441727 80.135162,159.303513 
	C80.518333,160.708817 80.619560,162.281052 81.335060,163.489624 
	C83.981201,167.959290 87.756821,171.999481 89.355087,176.786331 
	C91.127068,182.093445 95.147491,183.753143 99.297821,186.691757 
	C99.366959,187.779617 99.193428,188.961105 99.567688,189.931259 
	C100.018661,191.100281 100.934853,192.089844 101.918404,193.708633 
	C102.214012,193.980438 102.509621,194.252243 102.552521,195.152115 
	C102.658501,196.038528 102.764481,196.924957 102.299507,198.196671 
	C102.834465,198.828125 103.369423,199.459564 104.132767,200.653595 
	C104.744812,201.152176 105.356857,201.650757 105.968903,202.149353 
	C106.333801,200.787201 106.698700,199.425034 107.734718,198.038422 
	C108.181435,198.000244 108.628143,197.962067 109.710663,197.765610 
	C110.454803,196.966263 111.198944,196.166931 112.429306,195.035095 
	C113.585960,193.706985 114.742622,192.378891 116.027580,190.903473 
	C114.043671,190.903473 112.644051,190.903473 110.975037,190.332138 
M83.447487,16.225147 
	C82.866600,16.846951 82.285706,17.468752 81.227898,18.711649 
	C81.195427,19.482975 81.162956,20.254301 81.022713,21.783073 
	C82.313019,24.267534 83.603325,26.751995 84.840904,30.020172 
	C87.051491,34.381008 89.474083,31.747446 92.525589,29.888798 
	C95.868507,29.324848 96.587456,26.790396 97.287857,23.369404 
	C97.151184,21.589415 97.014511,19.809427 96.824394,17.354664 
	C94.152817,14.922208 92.056824,11.033134 86.766014,13.735331 
	C85.842598,14.598649 84.919174,15.461967 83.447487,16.225147 
z"/>
<path fill="#1D1518" opacity="1.000000" stroke="none" 
	d="
M107.088348,116.055611 
	C106.373215,112.564217 105.658081,109.072823 105.448494,105.200058 
	C106.664764,104.197830 107.375481,103.576965 108.475311,102.951187 
	C109.906898,102.959953 110.949371,102.973648 111.840950,103.285538 
	C111.093170,104.691223 110.496292,105.798706 109.718697,107.241501 
	C114.600105,107.028343 116.434074,104.994476 116.078720,100.845993 
	C116.304939,100.191170 116.301498,99.637665 116.271576,98.706604 
	C116.506393,97.212547 116.767685,96.096039 117.103577,95.119751 
	C117.178177,95.259956 117.584686,95.295280 117.584686,95.295280 
	C117.584686,95.295280 117.763145,94.889771 118.042473,94.777733 
	C118.917618,94.148506 119.513443,93.631317 120.483406,93.015289 
	C123.883247,92.945778 126.908936,92.975121 129.934631,93.004456 
	C129.289871,96.380936 128.645111,99.757423 127.540237,103.571259 
	C125.064774,106.017380 122.830276,107.861908 121.141472,110.115387 
	C120.462013,111.022034 120.979355,112.825584 120.951996,114.220932 
	C122.290817,114.041687 123.626884,113.751595 124.969337,113.718193 
	C126.047432,113.691368 127.133270,113.975578 128.215668,114.121758 
	C127.776070,114.706978 127.336487,115.292206 126.203781,115.989243 
	C123.347359,116.407280 121.184044,116.713509 118.641373,116.852333 
	C114.537460,116.475159 110.812904,116.265381 107.088348,116.055611 
z"/>
<path fill="#9B583A" opacity="1.000000" stroke="none" 
	d="
M125.863464,144.963409 
	C125.925926,145.735367 125.988388,146.507309 126.119743,148.104034 
	C125.811226,155.256393 125.433815,161.583984 125.020035,168.356567 
	C124.742264,171.065033 124.603630,173.345291 124.237183,175.588348 
	C123.558105,179.744995 125.171806,182.501205 129.014801,184.404419 
	C128.168961,187.261948 127.353790,189.728745 126.486221,192.354095 
	C124.519234,191.653809 123.313309,191.224472 122.107376,190.795151 
	C121.372490,186.494919 120.637604,182.194672 119.915009,177.101242 
	C119.271889,171.488846 118.616493,166.669632 117.929405,161.617432 
	C118.479675,161.555649 119.569405,161.433304 120.304253,161.350800 
	C119.510300,155.823074 118.774765,150.702072 117.950516,144.963409 
	C121.054283,144.963409 123.458878,144.963409 125.863464,144.963409 
z"/>
<path fill="#F2E1DB" opacity="1.000000" stroke="none" 
	d="
M83.677269,71.211212 
	C88.910667,68.507774 92.561981,71.591965 95.964973,75.584534 
	C96.224754,75.248367 96.484535,74.912201 96.744308,74.576042 
	C96.520905,72.886269 96.297501,71.196503 96.381340,69.315750 
	C99.447006,71.413597 102.205429,73.702431 105.221695,76.138962 
	C106.232864,77.197990 106.986206,78.109322 107.728531,79.327972 
	C107.868042,80.763794 108.018570,81.892288 107.773811,83.120468 
	C105.214897,84.049492 100.862846,79.905571 100.795410,86.210014 
	C102.398438,88.612190 104.229485,90.821022 105.851578,93.045761 
	C105.642624,93.061676 105.223579,93.069221 105.223579,93.069221 
	C104.121643,92.795029 102.894096,92.744926 101.938637,92.209404 
	C96.687363,89.266144 91.562035,86.094955 86.275391,83.219070 
	C82.397980,81.109795 79.114471,74.562393 80.857208,71.509094 
	C84.028275,75.044617 86.686310,78.428917 89.837746,81.264923 
	C90.900795,82.221581 93.215279,81.787621 94.957825,81.989204 
	C94.308578,80.433723 94.078392,78.366959 92.927437,77.423607 
	C90.067818,75.079796 86.788208,73.248398 83.677269,71.211212 
z"/>
<path fill="#302758" opacity="1.000000" stroke="none" 
	d="
M98.817688,131.261642 
	C98.690956,130.794571 98.305191,130.176224 98.476372,129.883163 
	C101.009254,125.546623 103.616035,121.253250 106.634094,117.243713 
	C107.986023,118.057877 108.909180,118.577972 109.867226,119.483345 
	C109.851532,120.684036 109.689507,121.511322 109.774834,122.312256 
	C109.926880,123.739281 110.228485,125.150360 110.467529,126.568108 
	C111.601112,125.810356 112.683167,124.955734 113.880943,124.318687 
	C115.477608,123.469490 117.164246,122.789474 118.922966,122.321091 
	C119.340347,123.097542 119.647003,123.589706 119.833656,124.435547 
	C119.514679,126.219345 119.315712,127.649460 118.917946,129.418793 
	C117.498756,133.436356 116.278366,137.114685 114.993164,140.450867 
	C112.260124,133.743881 107.128548,132.267014 100.577927,132.930115 
	C99.825653,132.423447 99.366455,132.011017 98.947250,131.530823 
	C98.987251,131.463028 98.817688,131.261642 98.817688,131.261642 
z"/>
<path fill="#83341D" opacity="1.000000" stroke="none" 
	d="
M96.124016,154.484085 
	C95.423920,155.231186 94.723831,155.978271 93.621117,156.948761 
	C93.078629,157.235596 92.938759,157.299026 92.798889,157.362442 
	C92.954910,157.605438 93.110924,157.848450 93.266937,158.091446 
	C93.266937,158.091446 93.430756,158.429321 93.088829,158.766754 
	C92.507362,159.902939 91.829704,160.915543 92.098480,161.466217 
	C94.024696,165.412613 96.143379,169.265076 97.960770,173.413483 
	C96.132782,174.144257 94.544952,174.608917 92.776016,174.791046 
	C89.048393,169.683990 85.501877,164.859467 81.967834,159.654358 
	C83.637741,156.205246 85.295181,153.136703 87.261749,149.898895 
	C89.588730,147.997620 89.922256,143.996368 93.985771,145.381561 
	C94.715164,148.678909 95.419586,151.581497 96.124016,154.484085 
z"/>
<path fill="#BF8462" opacity="1.000000" stroke="none" 
	d="
M95.210831,65.080902 
	C91.255463,59.867378 89.018929,54.098980 88.881386,47.450966 
	C88.841347,45.515488 87.618011,43.604488 86.940605,41.692219 
	C90.410904,39.592670 92.324432,40.473236 93.193481,43.823540 
	C93.919876,46.623909 94.548874,49.449402 95.255615,52.255047 
	C96.012077,55.257988 96.822281,57.973034 100.035248,59.715496 
	C102.050758,60.808559 103.125221,63.525829 104.859215,65.279762 
	C106.642601,67.083656 108.714325,68.602478 110.689072,70.783127 
	C108.932739,71.867691 107.147209,72.415169 105.001266,72.889847 
	C101.497505,70.238342 98.354164,67.659622 95.210831,65.080902 
z"/>
<path fill="#EFBE2D" opacity="1.000000" stroke="none" 
	d="
M119.116745,129.079575 
	C119.315712,127.649460 119.514679,126.219345 120.070457,124.215569 
	C120.265274,122.582024 120.103287,121.522141 119.620407,120.325546 
	C118.837799,120.130310 118.376106,120.071777 117.950714,119.691391 
	C118.331596,118.586273 118.676163,117.803009 119.020729,117.019745 
	C121.184044,116.713509 123.347359,116.407280 125.937988,116.094986 
	C126.657654,118.840729 126.950020,121.592537 127.168167,124.986191 
	C127.239571,126.138893 127.385185,126.649750 127.530800,127.160614 
	C127.612129,127.895714 127.693466,128.630814 127.864555,130.154175 
	C127.993080,132.919785 128.031845,134.897141 128.070618,136.874512 
	C126.628342,138.607635 125.186081,140.340759 123.011856,142.091461 
	C121.143188,142.346176 120.006477,142.583313 118.899323,142.384872 
	C118.991493,137.659393 119.054115,133.369476 119.116745,129.079575 
z"/>
<path fill="#F2E1DB" opacity="1.000000" stroke="none" 
	d="
M125.056404,167.911591 
	C125.433815,161.583984 125.811226,155.256393 126.229767,148.476105 
	C126.468803,152.252594 126.275154,156.545975 126.955818,160.695953 
	C127.992630,167.017349 128.897141,173.541656 131.293900,179.391418 
	C132.753448,182.953720 133.498886,185.829712 131.888397,189.094650 
	C129.811447,193.305267 129.630783,197.387039 131.432037,201.871796 
	C128.721344,202.787384 126.417099,203.378830 124.112839,203.970261 
	C123.549980,203.701233 122.987122,203.432220 122.424255,203.163208 
	C126.302292,199.173645 122.538826,195.431229 122.078537,191.189026 
	C123.313309,191.224472 124.519234,191.653809 126.486221,192.354095 
	C127.353790,189.728745 128.168961,187.261948 129.327515,184.224792 
	C128.132736,178.406815 126.594574,173.159210 125.056404,167.911591 
z"/>
<path fill="#C2A197" opacity="1.000000" stroke="none" 
	d="
M124.096634,204.345367 
	C126.417099,203.378830 128.721344,202.787384 131.402161,202.245300 
	C132.736618,203.922974 133.539673,205.670822 134.685013,207.154419 
	C136.999374,210.152298 137.369568,212.682907 132.982727,214.920929 
	C132.300415,215.516495 132.153259,215.833618 132.006104,216.150726 
	C130.386673,220.187531 128.615616,224.058624 122.633026,223.976196 
	C123.491928,221.648178 125.048058,219.432693 126.827423,217.182938 
	C127.356209,216.798111 127.661751,216.447540 128.257584,216.041733 
	C129.000900,215.633621 129.453903,215.280746 129.917664,214.712158 
	C129.928421,214.496445 129.923920,214.064499 130.212677,214.002411 
	C130.660751,213.899841 130.841400,213.892899 130.973251,213.809158 
	C131.097290,213.730331 131.169861,213.570496 131.265060,213.446289 
	C128.685928,213.786636 127.467896,207.132935 123.792931,212.045441 
	C123.584404,212.058167 123.167725,212.089142 123.167725,212.089142 
	C123.471954,209.632919 123.776192,207.176697 124.096634,204.345367 
z"/>
<path fill="#83341D" opacity="1.000000" stroke="none" 
	d="
M118.869781,142.820465 
	C120.006477,142.583313 121.143188,142.346176 122.637459,142.128540 
	C123.995461,142.853531 124.995895,143.559052 125.929901,144.613983 
	C123.458878,144.963409 121.054283,144.963409 117.950516,144.963409 
	C118.774765,150.702072 119.510300,155.823074 120.304253,161.350800 
	C119.569405,161.433304 118.479675,161.555649 117.929405,161.617432 
	C118.616493,166.669632 119.271889,171.488846 119.946777,176.688538 
	C114.263412,168.219315 112.954086,158.573624 114.407364,147.874786 
	C113.968376,147.238617 113.887390,147.090210 113.806412,146.941803 
	C113.782364,146.520309 113.758308,146.098831 113.783981,145.065277 
	C115.512390,143.908966 117.191086,143.364716 118.869781,142.820465 
z"/>
<path fill="#AC7157" opacity="1.000000" stroke="none" 
	d="
M113.690315,68.023735 
	C113.409935,64.253166 116.870758,57.895882 119.789497,58.168343 
	C121.888527,58.364285 124.563690,60.545933 125.520775,62.542267 
	C126.493912,64.572105 129.387482,67.969940 123.950012,69.914276 
	C120.013275,69.329292 116.851791,68.676514 113.690315,68.023735 
z"/>
<path fill="#F2E1DB" opacity="1.000000" stroke="none" 
	d="
M81.955360,160.034943 
	C85.501877,164.859467 89.048393,169.683990 92.878464,175.107620 
	C95.084694,177.836716 97.007370,179.966690 98.941620,182.402069 
	C99.023712,183.803955 99.094238,184.900452 99.164764,185.996964 
	C95.147491,183.753143 91.127068,182.093445 89.355087,176.786331 
	C87.756821,171.999481 83.981201,167.959290 81.335060,163.489624 
	C80.619560,162.281052 80.518333,160.708817 80.455826,159.044098 
	C81.169456,159.201431 81.562408,159.618179 81.955360,160.034943 
z"/>
<path fill="#CEB3A7" opacity="1.000000" stroke="none" 
	d="
M99.231293,186.344360 
	C99.094238,184.900452 99.023712,183.803955 99.281059,182.328400 
	C100.147659,179.573166 100.686394,177.196976 101.225128,174.820770 
	C102.666977,176.561768 104.061584,178.344818 105.563240,180.032593 
	C107.251839,181.930511 109.112244,183.680618 110.723480,185.638565 
	C111.092781,186.087326 110.749092,187.122818 110.139069,188.115662 
	C108.413681,188.879196 107.282768,189.415344 105.763092,189.964798 
	C104.904968,190.475159 104.435600,190.972229 103.863251,191.535294 
	C103.760269,191.601273 103.426102,191.956635 103.054741,192.016602 
	C102.338814,192.436752 101.994240,192.796921 101.649658,193.157104 
	C100.934853,192.089844 100.018661,191.100281 99.567688,189.931259 
	C99.193428,188.961105 99.366959,187.779617 99.231293,186.344360 
z"/>
<path fill="#6C2112" opacity="1.000000" stroke="none" 
	d="
M96.954239,23.991484 
	C96.587456,26.790396 95.868507,29.324848 91.905563,29.924065 
	C89.154907,29.718374 87.024269,29.477415 84.893631,29.236454 
	C83.603325,26.751995 82.313019,24.267534 81.497787,21.382290 
	C84.409233,21.333332 87.469559,20.897758 89.137421,22.219412 
	C91.713097,24.260431 94.125244,24.406052 96.954239,23.991484 
z"/>
<path fill="#9B583A" opacity="1.000000" stroke="none" 
	d="
M98.486908,131.395264 
	C98.817688,131.261642 98.987251,131.463028 98.807312,131.932526 
	C99.361870,132.907059 100.096367,133.412094 100.972183,134.238602 
	C103.079727,135.722504 105.045944,136.884918 106.982925,138.413300 
	C105.790253,141.915390 105.326317,145.626068 100.671967,145.882629 
	C98.572067,142.065308 96.733261,138.474701 94.894455,134.884094 
	C95.981682,133.765686 97.068909,132.647293 98.486908,131.395264 
z"/>
<path fill="#6C2112" opacity="1.000000" stroke="none" 
	d="
M94.585831,134.985474 
	C96.733261,138.474701 98.572067,142.065308 100.635986,146.247910 
	C100.611496,148.296356 100.361900,149.752823 100.112305,151.209274 
	C98.978676,152.202560 97.845047,153.195862 96.417725,154.336609 
	C95.419586,151.581497 94.715164,148.678909 93.845749,145.050156 
	C92.657494,142.707016 91.634216,141.090057 90.610931,139.473083 
	C91.833023,138.011002 93.055107,136.548935 94.585831,134.985474 
z"/>
<path fill="#9B583A" opacity="1.000000" stroke="none" 
	d="
M130.162659,92.737343 
	C126.908936,92.975121 123.883247,92.945778 120.245117,92.868042 
	C119.414604,92.525383 119.196533,92.231125 119.176224,91.669708 
	C121.563187,89.267868 123.752373,87.133171 126.238449,84.856689 
	C127.385727,83.510582 128.236115,82.306274 129.458191,81.067772 
	C130.310196,80.913223 130.790543,80.792862 131.270874,80.672508 
	C132.632431,84.728554 133.671646,88.760551 130.162659,92.737343 
z"/>
<path fill="#81422F" opacity="1.000000" stroke="none" 
	d="
M97.121048,23.680443 
	C94.125244,24.406052 91.713097,24.260431 89.137421,22.219412 
	C87.469559,20.897758 84.409233,21.333332 81.551674,21.003567 
	C81.162956,20.254301 81.195427,19.482975 81.740295,18.376738 
	C82.833710,17.469645 83.414734,16.897463 83.995750,16.325283 
	C84.919174,15.461967 85.842598,14.598649 87.379196,13.795279 
	C87.992371,15.258550 87.992371,16.661873 87.992371,18.950951 
	C90.925423,18.646763 93.901627,18.338099 96.877831,18.029438 
	C97.014511,19.809427 97.151184,21.589415 97.121048,23.680443 
z"/>
<path fill="#6C2112" opacity="1.000000" stroke="none" 
	d="
M113.707504,68.386574 
	C116.851791,68.676514 120.013275,69.329292 123.577377,69.999588 
	C123.972275,71.103622 123.964539,72.190155 123.502243,73.754669 
	C122.718422,75.133446 122.389137,76.034225 122.007118,77.231697 
	C121.613281,78.013535 121.272194,78.498688 120.583656,79.016998 
	C119.125725,79.332581 118.015228,79.615005 116.813530,79.589828 
	C116.048752,77.108467 115.375183,74.934715 114.701614,72.760963 
	C114.375969,71.423782 114.050323,70.086594 113.707504,68.386574 
z"/>
<path fill="#81422F" opacity="1.000000" stroke="none" 
	d="
M83.372589,71.238815 
	C86.788208,73.248398 90.067818,75.079796 92.927437,77.423607 
	C94.078392,78.366959 94.308578,80.433723 94.957825,81.989204 
	C93.215279,81.787621 90.900795,82.221581 89.837746,81.264923 
	C86.686310,78.428917 84.028275,75.044617 81.207001,71.514191 
	C81.847084,71.191254 82.457497,71.228844 83.372589,71.238815 
z"/>
<path fill="#302758" opacity="1.000000" stroke="none" 
	d="
M128.484833,113.836090 
	C127.133270,113.975578 126.047432,113.691368 124.969337,113.718193 
	C123.626884,113.751595 122.290817,114.041687 120.951996,114.220932 
	C120.979355,112.825584 120.462013,111.022034 121.141472,110.115387 
	C122.830276,107.861908 125.064774,106.017380 127.421814,103.942245 
	C128.093674,107.100716 128.423843,110.325562 128.484833,113.836090 
z"/>
<path fill="#AC7157" opacity="1.000000" stroke="none" 
	d="
M126.604187,217.217194 
	C125.048058,219.432693 123.491928,221.648178 122.211502,223.919769 
	C120.922768,224.414017 119.358322,224.852173 117.793869,225.290314 
	C117.719604,223.848145 117.104210,222.126678 117.676338,221.018127 
	C119.167847,218.128204 121.179779,215.506882 123.075928,212.433777 
	C123.167725,212.089142 123.584404,212.058167 123.903244,212.327698 
	C124.831406,213.395645 125.440727,214.194061 126.061638,215.381454 
	C126.250206,216.252686 126.427193,216.734940 126.604187,217.217194 
z"/>
<path fill="#AC7157" opacity="1.000000" stroke="none" 
	d="
M114.510605,72.698654 
	C115.375183,74.934715 116.048752,77.108467 116.507561,79.767471 
	C115.398941,80.407166 113.780647,80.838737 113.718079,80.675179 
	C112.437630,77.327950 109.936775,78.754593 107.739548,79.020653 
	C106.986206,78.109322 106.232864,77.197990 105.287048,75.762238 
	C105.183609,74.479424 105.272644,73.721039 105.361679,72.962646 
	C107.147209,72.415169 108.932739,71.867691 110.904366,71.047256 
	C111.715630,71.217751 112.340790,71.661194 113.064163,72.614258 
	C113.426895,73.018349 113.691414,72.912811 113.955933,72.807281 
	C113.955933,72.807289 114.319595,72.636353 114.510605,72.698654 
M109.522888,73.405891 
	C109.522888,73.405891 109.590996,73.519737 109.522888,73.405891 
z"/>
<path fill="#1D1518" opacity="1.000000" stroke="none" 
	d="
M107.012154,138.047348 
	C105.045944,136.884918 103.079727,135.722504 101.028793,134.017151 
	C100.944061,133.474243 100.871010,133.024384 100.871010,133.024384 
	C107.128548,132.267014 112.260124,133.743881 114.607635,140.531021 
	C113.513336,141.003082 112.739769,141.052841 111.966209,141.102600 
	C111.533157,141.087616 111.100098,141.072617 110.345879,140.668793 
	C109.020523,139.535751 108.016342,138.791550 107.012154,138.047348 
z"/>
<path fill="#BF8462" opacity="1.000000" stroke="none" 
	d="
M122.059860,76.935013 
	C122.389137,76.034225 122.718422,75.133446 123.340103,74.129135 
	C126.087486,76.039612 128.542465,78.053612 131.134155,80.370056 
	C130.790543,80.792862 130.310196,80.913223 129.154419,80.921555 
	C127.732735,80.820953 126.859741,80.582314 126.261490,80.885612 
	C123.101913,82.487381 120.011543,84.225662 116.988052,85.593079 
	C118.450966,83.539253 119.822998,81.808945 121.480118,80.215973 
	C122.483063,80.090858 123.200935,79.828407 123.918800,79.565956 
	C123.299156,78.688972 122.679512,77.811989 122.059860,76.935013 
z"/>
<path fill="#6C2112" opacity="1.000000" stroke="none" 
	d="
M98.200935,173.147385 
	C96.143379,169.265076 94.024696,165.412613 92.098480,161.466217 
	C91.829704,160.915543 92.507362,159.902939 93.046631,158.949707 
	C95.499245,162.298187 97.652122,165.801178 99.855774,170.012085 
	C99.878716,171.473068 99.850891,172.226151 99.551270,172.997955 
	C98.919960,173.060257 98.560448,173.103821 98.200935,173.147385 
z"/>
<path fill="#81422F" opacity="1.000000" stroke="none" 
	d="
M90.305901,139.619385 
	C91.634216,141.090057 92.657494,142.707016 93.820786,144.655396 
	C89.922256,143.996368 89.588730,147.997620 87.003860,149.759369 
	C85.924820,149.504135 85.412788,149.219177 84.900757,148.934204 
	C86.600792,145.878021 88.300827,142.821854 90.305901,139.619385 
z"/>
<path fill="#BF8462" opacity="1.000000" stroke="none" 
	d="
M97.960770,173.413483 
	C98.560448,173.103821 98.919960,173.060257 99.783951,173.034454 
	C100.288422,173.052200 100.753006,173.129456 100.753006,173.129456 
	C100.862602,173.504333 100.972198,173.879227 101.153473,174.537445 
	C100.686394,177.196976 100.147659,179.573166 99.269485,182.023026 
	C97.007370,179.966690 95.084694,177.836716 93.059570,175.390152 
	C94.544952,174.608917 96.132782,174.144257 97.960770,173.413483 
z"/>
<path fill="#9B583A" opacity="1.000000" stroke="none" 
	d="
M96.851112,17.692051 
	C93.901627,18.338099 90.925423,18.646763 87.992371,18.950951 
	C87.992371,16.661873 87.992371,15.258550 87.695175,13.742531 
	C92.056824,11.033134 94.152817,14.922208 96.851112,17.692051 
z"/>
<path fill="#81422F" opacity="1.000000" stroke="none" 
	d="
M106.982925,138.413300 
	C108.016342,138.791550 109.020523,139.535751 110.020889,140.631622 
	C106.925545,144.308807 103.834007,147.634293 100.427383,151.084534 
	C100.361900,149.752823 100.611496,148.296356 100.897079,146.474625 
	C105.326317,145.626068 105.790253,141.915390 106.982925,138.413300 
z"/>
<path fill="#6C2112" opacity="1.000000" stroke="none" 
	d="
M84.639679,149.135498 
	C85.412788,149.219177 85.924820,149.504135 86.694733,149.928619 
	C85.295181,153.136703 83.637741,156.205246 81.967834,159.654358 
	C81.562408,159.618179 81.169456,159.201431 80.523872,158.639435 
	C81.640366,155.441727 83.009483,152.389252 84.639679,149.135498 
z"/>
<path fill="#83341D" opacity="1.000000" stroke="none" 
	d="
M118.641373,116.852341 
	C118.676163,117.803009 118.331596,118.586273 117.542969,119.738342 
	C114.676720,119.770782 112.254532,119.434418 109.832344,119.098061 
	C108.909180,118.577972 107.986023,118.057877 106.979782,117.203270 
	C106.896698,116.868759 106.920227,116.444397 107.004288,116.250000 
	C110.812904,116.265381 114.537460,116.475159 118.641373,116.852341 
z"/>
<path fill="#CEB3A7" opacity="1.000000" stroke="none" 
	d="
M112.128098,141.372803 
	C112.739769,141.052841 113.513336,141.003082 114.672432,140.873169 
	C116.278366,137.114685 117.498756,133.436356 118.917938,129.418793 
	C119.054115,133.369476 118.991493,137.659393 118.899323,142.384888 
	C117.191086,143.364716 115.512390,143.908966 113.690918,144.762238 
	C113.128754,143.928497 112.709373,142.785767 112.128098,141.372803 
z"/>
<path fill="#81422F" opacity="1.000000" stroke="none" 
	d="
M105.001266,72.889847 
	C105.272644,73.721039 105.183609,74.479424 105.029213,75.614540 
	C102.205429,73.702431 99.447006,71.413597 96.415970,68.915329 
	C95.767731,67.677910 95.392120,66.649933 95.113670,65.351425 
	C98.354164,67.659622 101.497505,70.238342 105.001266,72.889847 
z"/>
<path fill="#AC7157" opacity="1.000000" stroke="none" 
	d="
M105.139252,93.459496 
	C105.223579,93.069221 105.642624,93.061676 105.822655,93.037796 
	C106.002686,93.013916 106.013535,92.955063 105.967133,93.321037 
	C106.575279,94.477974 107.229820,95.268929 107.961014,96.453552 
	C108.090721,97.920700 108.143761,98.994186 108.162971,100.294312 
	C108.129135,100.520958 108.030594,100.968559 107.849800,101.075233 
	C107.574272,101.284454 107.479546,101.386993 107.384811,101.489532 
	C107.598991,101.663544 107.813156,101.837540 108.066971,102.246132 
	C108.106606,102.480721 108.086212,102.956116 108.086212,102.956116 
	C107.375481,103.576965 106.664764,104.197830 105.680267,104.887901 
	C105.289307,101.254669 105.172112,97.552216 105.139252,93.459496 
z"/>
<path fill="#C2A197" opacity="1.000000" stroke="none" 
	d="
M102.870461,197.811371 
	C102.764481,196.924957 102.658501,196.038528 102.943024,194.691589 
	C103.520836,194.156570 103.708153,194.082077 104.074524,194.303772 
	C105.148270,194.668594 106.042961,194.737213 107.000549,194.991821 
	C107.063446,195.177811 107.176529,195.553848 106.986282,195.765701 
	C106.885216,196.672668 106.974403,197.367767 107.063599,198.062881 
	C106.698700,199.425034 106.333801,200.787201 105.968903,202.149353 
	C105.356857,201.650757 104.744812,201.152176 104.300262,200.220062 
	C104.820374,199.304504 105.172981,198.822449 105.676682,198.133865 
	C104.507401,197.999496 103.688934,197.905426 102.870461,197.811371 
z"/>
<path fill="#BF8462" opacity="1.000000" stroke="none" 
	d="
M107.176529,195.553848 
	C107.176529,195.553848 107.063446,195.177811 106.843231,194.764435 
	C106.092773,194.203049 105.562546,194.055054 105.021194,193.668152 
	C105.010063,193.429230 104.991920,192.951218 105.124252,192.739288 
	C105.515648,192.284729 105.822227,192.175873 106.360748,192.419495 
	C107.298141,192.755264 108.051102,192.872345 109.128586,192.967178 
	C109.667107,192.909729 109.881096,192.874542 110.423965,193.079269 
	C111.149605,194.001999 111.546341,194.684784 111.943085,195.367584 
	C111.198944,196.166931 110.454803,196.966263 109.343689,197.515930 
	C108.376648,196.695465 107.776588,196.124649 107.176529,195.553848 
z"/>
<path fill="#CEB3A7" opacity="1.000000" stroke="none" 
	d="
M112.186195,195.201340 
	C111.546341,194.684784 111.149605,194.001999 110.450790,192.784393 
	C110.513962,191.800873 110.879196,191.352173 111.244431,190.903473 
	C112.644051,190.903473 114.043671,190.903473 116.027580,190.903473 
	C114.742622,192.378891 113.585960,193.706985 112.186195,195.201340 
z"/>
<path fill="#1D1518" opacity="1.000000" stroke="none" 
	d="
M84.867264,29.628313 
	C87.024269,29.477415 89.154907,29.718374 91.574158,30.096176 
	C89.474083,31.747446 87.051491,34.381008 84.867264,29.628313 
z"/>
<path fill="#C2A197" opacity="1.000000" stroke="none" 
	d="
M111.109734,190.617798 
	C110.879196,191.352173 110.513962,191.800873 110.121902,192.544464 
	C109.881096,192.874542 109.667107,192.909729 109.018936,192.683563 
	C107.781952,192.348389 106.979134,192.274582 106.176323,192.200775 
	C105.822227,192.175873 105.515648,192.284729 104.843292,192.734741 
	C104.095367,192.613602 103.760735,192.285126 103.426102,191.956635 
	C103.426102,191.956635 103.760269,191.601273 104.161003,191.368164 
	C105.091774,190.740524 105.621819,190.346008 106.151855,189.951508 
	C107.282768,189.415344 108.413681,188.879196 109.832565,188.173401 
	C110.405373,188.779892 110.690201,189.556015 111.109734,190.617798 
z"/>
<path fill="#6C2112" opacity="1.000000" stroke="none" 
	d="
M128.422668,136.697433 
	C128.031845,134.897141 127.993080,132.919785 127.920578,130.521103 
	C128.182800,132.239975 128.478760,134.380173 128.422668,136.697433 
z"/>
<path fill="#302758" opacity="1.000000" stroke="none" 
	d="
M102.584984,198.004028 
	C103.688934,197.905426 104.507401,197.999496 105.676682,198.133865 
	C105.172981,198.822449 104.820374,199.304504 104.186081,199.938782 
	C103.369423,199.459564 102.834465,198.828125 102.584984,198.004028 
z"/>
<path fill="#9B583A" opacity="1.000000" stroke="none" 
	d="
M83.721619,16.275215 
	C83.414734,16.897463 82.833710,17.469645 81.978760,18.066189 
	C82.285706,17.468752 82.866600,16.846951 83.721619,16.275215 
z"/>
<path fill="#CEB3A7" opacity="1.000000" stroke="none" 
	d="
M106.986282,195.765701 
	C107.776588,196.124649 108.376648,196.695465 109.025787,197.595078 
	C108.628143,197.962067 108.181435,198.000244 107.399155,198.050659 
	C106.974403,197.367767 106.885216,196.672668 106.986282,195.765701 
z"/>
<path fill="#AC7157" opacity="1.000000" stroke="none" 
	d="
M103.054741,192.016602 
	C103.760735,192.285126 104.095367,192.613602 104.710960,192.946655 
	C104.991920,192.951218 105.010063,193.429230 104.738312,193.709900 
	C104.276199,193.996246 104.085831,194.001923 103.895462,194.007584 
	C103.708153,194.082077 103.520836,194.156570 103.069382,194.377548 
	C102.509621,194.252243 102.214012,193.980438 101.784035,193.432861 
	C101.994240,192.796921 102.338814,192.436752 103.054741,192.016602 
z"/>
<path fill="#CEB3A7" opacity="1.000000" stroke="none" 
	d="
M100.838898,172.792175 
	C100.753006,173.129456 100.288422,173.052200 100.055748,173.015717 
	C99.850891,172.226151 99.878716,171.473068 99.977570,170.349594 
	C100.340668,170.804443 100.632729,171.629669 100.838898,172.792175 
z"/>
<path fill="#CEB3A7" opacity="1.000000" stroke="none" 
	d="
M127.652199,126.889633 
	C127.385185,126.649750 127.239571,126.138893 127.136597,125.363647 
	C127.377357,125.605721 127.575478,126.112190 127.652199,126.889633 
z"/>
<path fill="#6C2112" opacity="1.000000" stroke="none" 
	d="
M93.460350,157.887238 
	C93.110924,157.848450 92.954910,157.605438 92.798889,157.362442 
	C92.938759,157.299026 93.078629,157.235596 93.454865,157.146973 
	C93.678749,157.308838 93.666260,157.495926 93.460350,157.887238 
z"/>
<path fill="#CEB3A7" opacity="1.000000" stroke="none" 
	d="
M113.690819,147.075836 
	C113.887390,147.090210 113.968376,147.238617 114.093552,147.636719 
	C113.950233,147.660904 113.762726,147.435394 113.690819,147.075836 
z"/>
<path fill="#BF8462" opacity="1.000000" stroke="none" 
	d="
M113.754654,72.742310 
	C113.691414,72.912811 113.426895,73.018349 113.146408,72.904007 
	C113.130432,72.684143 113.553383,72.677330 113.754654,72.742310 
z"/>
<path fill="#81422F" opacity="1.000000" stroke="none" 
	d="
M132.290939,216.095367 
	C132.153259,215.833618 132.300415,215.516495 132.698792,215.108612 
	C132.825287,215.358566 132.700531,215.699295 132.290939,216.095367 
z"/>
<path fill="#81422F" opacity="1.000000" stroke="none" 
	d="
M118.978455,91.936867 
	C119.196533,92.231125 119.414604,92.525383 119.870972,92.966888 
	C119.513443,93.631317 118.917618,94.148506 117.859711,94.799202 
	C117.397629,94.932709 117.028992,94.979538 117.028992,94.979538 
	C116.767685,96.096039 116.506393,97.212547 116.016212,98.792801 
	C115.807907,99.820129 115.828491,100.383713 115.849075,100.947304 
	C116.434074,104.994476 114.600105,107.028343 109.718697,107.241501 
	C110.496292,105.798706 111.093170,104.691223 111.875900,102.948502 
	C112.116013,100.892769 112.170265,99.472260 112.263474,97.701553 
	C111.873840,96.903488 111.445236,96.455627 110.953354,95.636337 
	C109.835022,94.873917 108.779968,94.482941 107.513138,93.938843 
	C106.872086,93.508835 106.442810,93.231949 106.013535,92.955063 
	C106.013535,92.955063 106.002686,93.013916 106.031601,93.021881 
	C104.229485,90.821022 102.398438,88.612190 101.210663,86.224426 
	C104.146416,86.672920 106.574883,87.011070 108.694077,88.007187 
	C110.920265,89.053596 112.850235,90.730164 114.971481,92.412994 
	C115.704628,92.501282 116.375946,92.307930 117.053970,92.071693 
	C117.060669,92.028809 117.018845,91.952751 117.345146,91.978561 
	C118.107117,91.981873 118.542786,91.959366 118.978455,91.936867 
z"/>
<path fill="#6C2112" opacity="1.000000" stroke="none" 
	d="
M112.224518,98.051758 
	C112.170265,99.472260 112.116013,100.892769 112.026810,102.650299 
	C110.949371,102.973648 109.906898,102.959953 108.475311,102.951187 
	C108.086212,102.956116 108.106606,102.480721 108.077286,101.985260 
	C108.042168,101.316055 108.036385,101.142303 108.030594,100.968559 
	C108.030594,100.968559 108.129135,100.520958 108.480728,100.271332 
	C109.595665,99.669273 110.359009,99.316833 111.331482,98.846817 
	C111.765602,98.500404 111.993568,98.274582 112.224518,98.051758 
z"/>
<path fill="#6C2112" opacity="1.000000" stroke="none" 
	d="
M116.078720,100.845993 
	C115.828491,100.383713 115.807907,99.820129 116.042694,99.170349 
	C116.301498,99.637665 116.304939,100.191170 116.078720,100.845993 
z"/>
<path fill="#6C2112" opacity="1.000000" stroke="none" 
	d="
M117.103584,95.119751 
	C117.028992,94.979538 117.397629,94.932709 117.580383,94.911240 
	C117.763145,94.889771 117.584686,95.295280 117.584686,95.295280 
	C117.584686,95.295280 117.178177,95.259956 117.103584,95.119751 
z"/>
<path fill="#AC7157" opacity="1.000000" stroke="none" 
	d="
M125.020035,168.356567 
	C126.594574,173.159210 128.132736,178.406815 129.358185,183.834045 
	C125.171806,182.501205 123.558105,179.744995 124.237183,175.588348 
	C124.603630,173.345291 124.742264,171.065033 125.020035,168.356567 
z"/>
<path fill="#AC7157" opacity="1.000000" stroke="none" 
	d="
M114.909653,92.131363 
	C112.850235,90.730164 110.920265,89.053596 108.694077,88.007187 
	C106.574883,87.011070 104.146416,86.672920 101.438675,86.031082 
	C100.862846,79.905571 105.214897,84.049492 108.072449,83.266968 
	C110.538750,84.268776 112.311104,85.223755 114.281776,86.402283 
	C115.315979,86.387749 116.151878,86.149666 116.966766,85.940598 
	C116.945763,85.969612 116.897171,85.916603 116.897171,85.916603 
	C120.011543,84.225662 123.101913,82.487381 126.261490,80.885612 
	C126.859741,80.582314 127.732735,80.820953 128.782730,80.955750 
	C128.236115,82.306274 127.385727,83.510582 125.862732,84.860703 
	C120.955475,85.544579 117.973778,87.556557 117.018845,91.952751 
	C117.018845,91.952751 117.060669,92.028809 116.698303,92.031570 
	C115.860504,92.066673 115.385078,92.099014 114.909653,92.131363 
z"/>
<path fill="#302758" opacity="1.000000" stroke="none" 
	d="
M114.083466,86.178741 
	C112.311104,85.223755 110.538750,84.268776 108.467743,83.167282 
	C108.018570,81.892288 107.868042,80.763794 107.728531,79.327972 
	C109.936775,78.754593 112.437630,77.327950 113.718079,80.675179 
	C113.780647,80.838737 115.398941,80.407166 116.598770,80.075073 
	C118.015228,79.615005 119.125725,79.332581 120.679688,79.283539 
	C121.147118,79.704163 121.171074,79.891403 121.195030,80.078636 
	C119.822998,81.808945 118.450966,83.539253 116.988052,85.593079 
	C116.897171,85.916603 116.945763,85.969612 116.599899,85.935669 
	C115.530518,85.994057 114.806992,86.086403 114.083466,86.178741 
z"/>
<path fill="#1D1518" opacity="1.000000" stroke="none" 
	d="
M109.867226,119.483337 
	C112.254532,119.434418 114.676720,119.770782 117.506653,120.060196 
	C118.376106,120.071777 118.837799,120.130310 119.436569,120.493195 
	C119.319832,121.210632 119.066032,121.623711 118.812233,122.036789 
	C117.164246,122.789474 115.477608,123.469490 113.880943,124.318687 
	C112.683167,124.955734 111.601112,125.810356 110.467529,126.568108 
	C110.228485,125.150360 109.926880,123.739281 109.774834,122.312256 
	C109.689507,121.511322 109.851532,120.684036 109.867226,119.483337 
z"/>
<path fill="#CEB3A7" opacity="1.000000" stroke="none" 
	d="
M118.922966,122.321091 
	C119.066032,121.623711 119.319832,121.210632 119.757469,120.629906 
	C120.103287,121.522141 120.265274,122.582024 120.190460,123.861893 
	C119.647003,123.589706 119.340347,123.097542 118.922966,122.321091 
z"/>
<path fill="#F6F5F5" opacity="1.000000" stroke="none" 
	d="
M100.577927,132.930115 
	C100.871010,133.024384 100.944061,133.474243 100.887459,133.695679 
	C100.096367,133.412094 99.361870,132.907059 98.767319,132.000305 
	C99.366455,132.011017 99.825653,132.423447 100.577927,132.930115 
z"/>
<path fill="#9B583A" opacity="1.000000" stroke="none" 
	d="
M126.050064,214.992477 
	C125.440727,214.194061 124.831406,213.395645 124.111771,212.314972 
	C127.467896,207.132935 128.685928,213.786636 131.265060,213.446289 
	C131.169861,213.570496 131.097290,213.730331 130.973251,213.809158 
	C130.841400,213.892899 130.660751,213.899841 129.922012,213.996185 
	C128.889877,214.359161 128.437134,214.666245 127.782288,214.985580 
	C127.580162,214.997833 127.175186,215.001343 126.894073,214.977264 
	C126.425331,214.966278 126.237694,214.979370 126.050064,214.992477 
z"/>
<path fill="#81422F" opacity="1.000000" stroke="none" 
	d="
M127.175186,215.001343 
	C127.175186,215.001343 127.580162,214.997833 128.104218,215.008530 
	C129.054489,214.988770 129.480698,214.958313 129.906906,214.927856 
	C129.453903,215.280746 129.000900,215.633621 128.037445,215.928986 
	C127.214798,215.660278 127.097519,215.370224 127.175186,215.001343 
z"/>
<path fill="#BF8462" opacity="1.000000" stroke="none" 
	d="
M126.894073,214.977264 
	C127.097519,215.370224 127.214798,215.660278 127.747154,215.984222 
	C127.661751,216.447540 127.356209,216.798111 126.827423,217.182938 
	C126.427193,216.734940 126.250206,216.252686 126.061646,215.381454 
	C126.237694,214.979370 126.425331,214.966278 126.894073,214.977264 
z"/>
<path fill="#BF8462" opacity="1.000000" stroke="none" 
	d="
M129.917664,214.712158 
	C129.480698,214.958313 129.054489,214.988770 128.306335,214.996277 
	C128.437134,214.666245 128.889877,214.359161 129.633270,214.058289 
	C129.923920,214.064499 129.928421,214.496445 129.917664,214.712158 
z"/>
<path fill="#AC7157" opacity="1.000000" stroke="none" 
	d="
M105.763092,189.964798 
	C105.621819,190.346008 105.091774,190.740524 104.263985,191.302185 
	C104.435600,190.972229 104.904968,190.475159 105.763092,189.964798 
z"/>
<path fill="#BF8462" opacity="1.000000" stroke="none" 
	d="
M117.345146,91.978561 
	C117.973778,87.556557 120.955475,85.544579 125.565842,85.002495 
	C123.752373,87.133171 121.563187,89.267868 119.176224,91.669708 
	C118.542786,91.959366 118.107117,91.981873 117.345146,91.978561 
z"/>
<path fill="#C2A197" opacity="1.000000" stroke="none" 
	d="
M121.480118,80.215973 
	C121.171074,79.891403 121.147118,79.704163 121.027130,79.250381 
	C121.272194,78.498688 121.613281,78.013535 122.007118,77.231697 
	C122.679512,77.811989 123.299156,78.688972 123.918800,79.565956 
	C123.200935,79.828407 122.483063,80.090858 121.480118,80.215973 
z"/>
<path fill="#BF8462" opacity="1.000000" stroke="none" 
	d="
M109.556946,73.462814 
	C109.590996,73.519737 109.522888,73.405891 109.556946,73.462814 
z"/>
<path fill="#1D1518" opacity="1.000000" stroke="none" 
	d="
M111.122345,98.964401 
	C110.359009,99.316833 109.595665,99.669273 108.514572,100.044693 
	C108.143761,98.994186 108.090721,97.920700 108.011551,96.403023 
	C107.985420,95.958832 108.124435,95.939865 108.420982,96.070755 
	C109.297630,96.481766 109.877724,96.761879 110.437752,97.308319 
	C110.652565,98.037895 110.887459,98.501152 111.122345,98.964401 
z"/>
<path fill="#CEB3A7" opacity="1.000000" stroke="none" 
	d="
M105.967133,93.321037 
	C106.442810,93.231949 106.872086,93.508835 107.564362,94.250565 
	C107.926392,95.123550 108.025414,95.531708 108.124435,95.939865 
	C108.124435,95.939865 107.985420,95.958832 107.934891,96.009361 
	C107.229820,95.268929 106.575279,94.477974 105.967133,93.321037 
z"/>
<path fill="#1D1518" opacity="1.000000" stroke="none" 
	d="
M107.849800,101.075233 
	C108.036385,101.142303 108.042168,101.316055 108.037643,101.750671 
	C107.813156,101.837540 107.598991,101.663544 107.384811,101.489532 
	C107.479546,101.386993 107.574272,101.284454 107.849800,101.075233 
z"/>
<path fill="#81422F" opacity="1.000000" stroke="none" 
	d="
M104.074524,194.303772 
	C104.085831,194.001923 104.276199,193.996246 104.749443,193.948822 
	C105.562546,194.055054 106.092773,194.203049 106.780334,194.578445 
	C106.042961,194.737213 105.148270,194.668594 104.074524,194.303772 
z"/>
<path fill="#9B583A" opacity="1.000000" stroke="none" 
	d="
M106.360748,192.419479 
	C106.979134,192.274582 107.781952,192.348389 108.694412,192.705811 
	C108.051102,192.872345 107.298141,192.755264 106.360748,192.419479 
z"/>
<path fill="#6C2112" opacity="1.000000" stroke="none" 
	d="
M108.420982,96.070755 
	C108.025414,95.531708 107.926392,95.123550 107.776138,94.403679 
	C108.779968,94.482941 109.835022,94.873917 110.884956,95.824219 
	C110.823524,96.657120 110.682861,96.876610 110.457825,97.042000 
	C109.877724,96.761879 109.297630,96.481766 108.420982,96.070755 
z"/>
<path fill="#9B583A" opacity="1.000000" stroke="none" 
	d="
M114.971481,92.412994 
	C115.385078,92.099014 115.860504,92.066673 116.691605,92.074455 
	C116.375946,92.307930 115.704628,92.501282 114.971481,92.412994 
z"/>
<path fill="#C2A197" opacity="1.000000" stroke="none" 
	d="
M110.437752,97.308319 
	C110.682861,96.876610 110.823524,96.657120 110.948227,96.195663 
	C111.445236,96.455627 111.873840,96.903488 112.263474,97.701553 
	C111.993568,98.274582 111.765602,98.500404 111.331482,98.846817 
	C110.887459,98.501152 110.652565,98.037895 110.437752,97.308319 
z"/>
<path fill="#BF8462" opacity="1.000000" stroke="none" 
	d="
M114.281776,86.402283 
	C114.806992,86.086403 115.530518,85.994057 116.620911,85.906647 
	C116.151878,86.149666 115.315979,86.387749 114.281776,86.402283 
z"/>
</svg>